<svg width="1260" height="920" viewBox="0 0 1260 920" fill="none" xmlns="http://www.w3.org/2000/svg">
  <rect width="1260" height="920" rx="28" fill="#F6F1E8"/>
  <rect x="28" y="28" width="1204" height="864" rx="24" fill="#FCFAF6" stroke="#E5DED2"/>
  <rect x="52" y="52" width="210" height="816" rx="20" fill="#172126"/>
  <rect x="292" y="52" width="916" height="96" rx="20" fill="#FFFFFF" stroke="#E8E1D6"/>
  <rect x="292" y="172" width="916" height="696" rx="24" fill="#FFFFFF" stroke="#E8E1D6"/>
  <rect x="76" y="88" width="92" height="18" rx="9" fill="#F0B7A0" fill-opacity="0.18"/>
  <rect x="76" y="126" width="162" height="12" rx="6" fill="#65707A"/>
  <rect x="76" y="166" width="120" height="44" rx="16" fill="#C85C36"/>
  <rect x="76" y="232" width="162" height="12" rx="6" fill="#FFFFFF" fill-opacity="0.8"/>
  <rect x="76" y="266" width="138" height="12" rx="6" fill="#FFFFFF" fill-opacity="0.38"/>
  <rect x="76" y="318" width="162" height="12" rx="6" fill="#FFFFFF" fill-opacity="0.8"/>
  <rect x="76" y="352" width="128" height="12" rx="6" fill="#FFFFFF" fill-opacity="0.38"/>
  <rect x="76" y="404" width="162" height="12" rx="6" fill="#FFFFFF" fill-opacity="0.8"/>
  <rect x="76" y="438" width="145" height="12" rx="6" fill="#FFFFFF" fill-opacity="0.38"/>
  <rect x="322" y="84" width="250" height="14" rx="7" fill="#1E293B"/>
  <rect x="322" y="112" width="170" height="10" rx="5" fill="#94A3B8"/>
  <rect x="1084" y="82" width="94" height="36" rx="18" fill="#1F2A2A"/>
  <rect x="322" y="202" width="370" height="24" rx="12" fill="#1E293B"/>
  <rect x="322" y="238" width="230" height="12" rx="6" fill="#94A3B8"/>
  <rect x="322" y="284" width="410" height="232" rx="22" fill="#FBF8F3" stroke="#E8E1D6"/>
  <rect x="760" y="284" width="418" height="232" rx="22" fill="#172126"/>
  <rect x="790" y="316" width="120" height="14" rx="7" fill="#F0B7A0" fill-opacity="0.28"/>
  <rect x="790" y="352" width="220" height="14" rx="7" fill="#FFFFFF"/>
  <rect x="790" y="382" width="292" height="12" rx="6" fill="#CBD5E1"/>
  <rect x="790" y="434" width="94" height="34" rx="17" fill="#C85C36"/>
  <rect x="350" y="316" width="106" height="14" rx="7" fill="#C85C36" fill-opacity="0.18"/>
  <rect x="350" y="352" width="238" height="16" rx="8" fill="#111827"/>
  <rect x="350" y="384" width="250" height="12" rx="6" fill="#94A3B8"/>
  <rect x="350" y="434" width="300" height="12" rx="6" fill="#CBD5E1"/>
  <rect x="350" y="458" width="252" height="12" rx="6" fill="#CBD5E1"/>
  <rect x="322" y="548" width="856" height="288" rx="24" fill="#FCFAF6" stroke="#E8E1D6"/>
  <rect x="350" y="584" width="160" height="12" rx="6" fill="#94A3B8"/>
  <rect x="350" y="620" width="800" height="74" rx="20" fill="#FFFFFF" stroke="#E8E1D6"/>
  <circle cx="392" cy="657" r="24" fill="#FDECEC"/>
  <rect x="432" y="638" width="210" height="14" rx="7" fill="#111827"/>
  <rect x="432" y="664" width="320" height="10" rx="5" fill="#94A3B8"/>
  <rect x="1042" y="640" width="76" height="34" rx="17" fill="#FDECEC"/>
  <rect x="350" y="716" width="800" height="74" rx="20" fill="#FFFFFF" stroke="#E8E1D6"/>
  <circle cx="392" cy="753" r="24" fill="#EEF8F1"/>
  <rect x="432" y="734" width="196" height="14" rx="7" fill="#111827"/>
  <rect x="432" y="760" width="280" height="10" rx="5" fill="#94A3B8"/>
  <rect x="1024" y="736" width="94" height="34" rx="17" fill="#EEF8F1"/>
</svg>
